<svg width="54" height="55" viewBox="0 0 54 55" fill="none" xmlns="http://www.w3.org/2000/svg">
    <path d="M31.5401 54.5905H0.431641V11.1877L15.9858 0.802734L31.5401 11.1877V54.5905ZM4.85574 50.1664H27.0927V13.5628L15.9858 6.15823L4.85574 13.5628V50.1664Z" fill="white"/>
    <path d="M9.3031 16.8226H13.7505V21.27H9.3031V16.8226Z" fill="white"/>
    <path d="M18.1979 16.8226H22.6453V21.27H18.1979V16.8226Z" fill="white"/>
    <path d="M9.3031 25.7174H13.7505V30.1648H9.3031V25.7174Z" fill="white"/>
    <path d="M18.1979 25.7174H22.6453V30.1648H18.1979V25.7174Z" fill="white"/>
    <path d="M9.3031 34.5889H13.7505V39.0363H9.3031V34.5889Z" fill="white"/>
    <path d="M18.1979 34.5889H22.6453V39.0363H18.1979V34.5889Z" fill="white"/>
    <path d="M11.5385 43.4836H20.4332V54.5905H11.5385V43.4836Z" fill="white"/>
    <path d="M53.7537 54.5905H27.0927V20.0127L40.4348 12.0027L53.7537 20.0127V54.5905ZM31.54 50.1664H49.3296V22.5275L40.4348 17.1952L31.54 22.5275V50.1664Z" fill="white"/>
    <path d="M35.9874 23.4821H44.8822V27.9295H35.9874V23.4821Z" fill="white"/>
    <path d="M35.9874 32.3768H44.8822V36.8242H35.9874V32.3768Z" fill="white"/>
    <path d="M35.9874 41.2716H44.8822V45.719H35.9874V41.2716Z" fill="white"/>
</svg>
