<svg width="53" height="52" viewBox="0 0 53 52" fill="none" xmlns="http://www.w3.org/2000/svg">
    <path d="M0.901855 51.9063L4.50101 39.1232C2.18654 35.1913 0.96796 30.7176 0.96796 26.1219C0.96796 11.9714 12.4802 0.459229 26.6306 0.459229C40.7811 0.459229 52.2931 11.9714 52.2931 26.1219C52.2931 40.2723 40.7811 51.7845 26.6306 51.7845C22.2214 51.7845 17.904 50.6559 14.0846 48.5128L0.901855 51.9063ZM14.7585 43.8441L15.544 44.3237C18.8741 46.3567 22.7079 47.4313 26.6306 47.4313C38.3806 47.4313 47.9399 37.8719 47.9399 26.1219C47.9399 14.3719 38.3806 4.81247 26.6306 4.81247C14.8806 4.81247 5.3212 14.3719 5.3212 26.1219C5.3212 30.216 6.4848 34.1918 8.68593 37.6194L9.21492 38.4432L7.1423 45.8046L14.7585 43.8441Z" fill="white"/>
    <path d="M19.4217 14.1776L17.7565 14.0868C17.2334 14.0583 16.7204 14.2331 16.3251 14.5765C15.5178 15.2775 14.227 16.6328 13.8305 18.399C13.2393 21.0324 14.153 24.257 16.5177 27.4816C18.8825 30.7062 23.2894 35.8656 31.0822 38.0692C33.5934 38.7792 35.5688 38.3005 37.0929 37.3256C38.3 36.5534 39.1322 35.314 39.432 33.9129L39.6979 32.6711C39.7824 32.2764 39.582 31.8759 39.2154 31.707L33.5876 29.1129C33.2222 28.9446 32.789 29.051 32.5433 29.3695L30.3339 32.2336C30.1671 32.4499 29.8814 32.5357 29.6234 32.4451C28.1104 31.9134 23.0423 29.7907 20.2614 24.434C20.1408 24.2017 20.1707 23.9197 20.3418 23.7215L22.4533 21.2789C22.669 21.0295 22.7235 20.6788 22.5939 20.3757L20.168 14.7002C20.0389 14.398 19.7495 14.1955 19.4217 14.1776Z" fill="white"/>
</svg>
